<svg id="visual" viewBox="0 0 1920 1080" width="1920" height="1080" xmlns="http://www.w3.org/2000/svg" xmlns:xlink="http://www.w3.org/1999/xlink" version="1.1"><rect x="0" y="0" width="1920" height="1080" fill="#FFFFFF"></rect><defs><linearGradient id="grad1_0" x1="43.8%" y1="100%" x2="100%" y2="0%"><stop offset="14.444444444444446%" stop-color="#ffffff" stop-opacity="1"></stop><stop offset="85.55555555555554%" stop-color="#ffffff" stop-opacity="1"></stop></linearGradient></defs><defs><linearGradient id="grad2_0" x1="0%" y1="100%" x2="56.3%" y2="0%"><stop offset="14.444444444444446%" stop-color="#ffffff" stop-opacity="1"></stop><stop offset="85.55555555555554%" stop-color="#ffffff" stop-opacity="1"></stop></linearGradient></defs><g transform="translate(1920, 1080)"><path d="M-702 0C-649.6 -74.1 -597.2 -148.2 -571 -236.5C-544.7 -324.8 -544.6 -427.2 -496.4 -496.4C-448.1 -565.5 -351.7 -601.4 -261 -630.1C-170.2 -658.8 -85.1 -680.4 0 -702L0 0Z" fill="#00001B"></path></g><g transform="translate(0, 0)"><path d="M702 0C688.5 95.8 675.1 191.5 627.3 259.8C579.5 328.2 497.4 369.1 437 437C376.6 504.9 337.9 599.9 268.6 648.6C199.4 697.2 99.7 699.6 0 702L0 0Z" fill="#00001B"></path></g></svg>