<svg id="visual" viewBox="0 0 900 600" width="900" height="600" xmlns="http://www.w3.org/2000/svg" xmlns:xlink="http://www.w3.org/1999/xlink" version="1.1"><g stroke-width="1" stroke-linejoin="bevel"><path d="M499 297.7L525 304L500 293.9Z" fill="#00001b" stroke="#00001b"></path><path d="M525 304L496 271.3L500 293.9Z" fill="#694a5c" stroke="#694a5c"></path><path d="M500 293.9L496 271.3L499 297.7Z" fill="#4f384c" stroke="#4f384c"></path><path d="M525 304L545 267.3L496 271.3Z" fill="#b68a89" stroke="#b68a89"></path><path d="M437 364L502 335.1L499 297.7Z" fill="#4f384c" stroke="#4f384c"></path><path d="M499 297.7L502 335.1L525 304Z" fill="#9d737a" stroke="#9d737a"></path><path d="M525 304L514 353.1L547 306.7Z" fill="#b68a89" stroke="#b68a89"></path><path d="M556 279.9L545 267.3L525 304Z" fill="#00001b" stroke="#00001b"></path><path d="M547 306.7L556 279.9L525 304Z" fill="#00001b" stroke="#00001b"></path><path d="M502 335.1L514 353.1L525 304Z" fill="#b68a89" stroke="#b68a89"></path><path d="M556 279.9L559 253.3L545 267.3Z" fill="#e5bba9" stroke="#e5bba9"></path><path d="M545 267.3L495 194.4L496 271.3Z" fill="#b68a89" stroke="#b68a89"></path><path d="M514 353.1L527 371L547 306.7Z" fill="#35273c" stroke="#35273c"></path><path d="M547 306.7L627 265.1L556 279.9Z" fill="#4f384c" stroke="#4f384c"></path><path d="M442 223.3L439 263.3L496 271.3Z" fill="#fad5bb" stroke="#fad5bb"></path><path d="M496 271.3L439 263.3L499 297.7Z" fill="#694a5c" stroke="#694a5c"></path><path d="M451 382.4L514 381.7L514 353.1Z" fill="#694a5c" stroke="#694a5c"></path><path d="M514 353.1L514 381.7L527 371Z" fill="#00001b" stroke="#00001b"></path><path d="M451 382.4L514 353.1L502 335.1Z" fill="#1c172b" stroke="#1c172b"></path><path d="M402 332.7L437 364L499 297.7Z" fill="#1c172b" stroke="#1c172b"></path><path d="M514 381.7L535 396.9L527 371Z" fill="#35273c" stroke="#35273c"></path><path d="M527 371L587 393.9L547 306.7Z" fill="#00001b" stroke="#00001b"></path><path d="M509 407.6L535 396.9L514 381.7Z" fill="#1c172b" stroke="#1c172b"></path><path d="M437 364L451 382.4L502 335.1Z" fill="#4f384c" stroke="#4f384c"></path><path d="M495 194.4L442 223.3L496 271.3Z" fill="#e5bba9" stroke="#e5bba9"></path><path d="M559 253.3L495 194.4L545 267.3Z" fill="#4f384c" stroke="#4f384c"></path><path d="M402 332.7L434 371L437 364Z" fill="#1c172b" stroke="#1c172b"></path><path d="M437 364L434 371L451 382.4Z" fill="#fad5bb" stroke="#fad5bb"></path><path d="M470 404.6L509 407.6L514 381.7Z" fill="#35273c" stroke="#35273c"></path><path d="M362 237L402 284.9L439 263.3Z" fill="#00001b" stroke="#00001b"></path><path d="M439 263.3L402 332.7L499 297.7Z" fill="#4f384c" stroke="#4f384c"></path><path d="M559 253.3L553 195.4L495 194.4Z" fill="#00001b" stroke="#00001b"></path><path d="M405 405.6L470 404.6L451 382.4Z" fill="#694a5c" stroke="#694a5c"></path><path d="M451 382.4L470 404.6L514 381.7Z" fill="#835e6b" stroke="#835e6b"></path><path d="M402 284.9L398 313L439 263.3Z" fill="#b68a89" stroke="#b68a89"></path><path d="M398 313L402 332.7L439 263.3Z" fill="#fad5bb" stroke="#fad5bb"></path><path d="M553 195.4L538 185.4L495 194.4Z" fill="#00001b" stroke="#00001b"></path><path d="M653 327.1L627 265.1L547 306.7Z" fill="#694a5c" stroke="#694a5c"></path><path d="M556 279.9L627 265.1L559 253.3Z" fill="#9d737a" stroke="#9d737a"></path><path d="M559 253.3L627 265.1L553 195.4Z" fill="#fad5bb" stroke="#fad5bb"></path><path d="M592 427.7L587 393.9L535 396.9Z" fill="#9d737a" stroke="#9d737a"></path><path d="M535 396.9L587 393.9L527 371Z" fill="#835e6b" stroke="#835e6b"></path><path d="M402 332.7L413 385.4L434 371Z" fill="#1c172b" stroke="#1c172b"></path><path d="M434 371L413 385.4L451 382.4Z" fill="#e5bba9" stroke="#e5bba9"></path><path d="M498 469.6L530 433.3L509 407.6Z" fill="#cea299" stroke="#cea299"></path><path d="M509 407.6L530 433.3L535 396.9Z" fill="#9d737a" stroke="#9d737a"></path><path d="M498 469.6L509 407.6L470 404.6Z" fill="#9d737a" stroke="#9d737a"></path><path d="M495 194.4L444 182.1L442 223.3Z" fill="#b68a89" stroke="#b68a89"></path><path d="M442 223.3L362 237L439 263.3Z" fill="#1c172b" stroke="#1c172b"></path><path d="M472 141.9L444 182.1L495 194.4Z" fill="#694a5c" stroke="#694a5c"></path><path d="M587 393.9L653 327.1L547 306.7Z" fill="#4f384c" stroke="#4f384c"></path><path d="M667 252.4L648 244.1L627 265.1Z" fill="#9d737a" stroke="#9d737a"></path><path d="M627 265.1L648 244.1L553 195.4Z" fill="#cea299" stroke="#cea299"></path><path d="M543 108.6L518 138.4L538 185.4Z" fill="#1c172b" stroke="#1c172b"></path><path d="M402 332.7L399 396.4L413 385.4Z" fill="#694a5c" stroke="#694a5c"></path><path d="M413 385.4L405 405.6L451 382.4Z" fill="#1c172b" stroke="#1c172b"></path><path d="M357 321.1L399 396.4L402 332.7Z" fill="#b68a89" stroke="#b68a89"></path><path d="M530 433.3L592 427.7L535 396.9Z" fill="#fad5bb" stroke="#fad5bb"></path><path d="M587 393.9L655 389.6L653 327.1Z" fill="#4f384c" stroke="#4f384c"></path><path d="M399 396.4L405 405.6L413 385.4Z" fill="#694a5c" stroke="#694a5c"></path><path d="M402 284.9L357 321.1L398 313Z" fill="#b68a89" stroke="#b68a89"></path><path d="M398 313L357 321.1L402 332.7Z" fill="#835e6b" stroke="#835e6b"></path><path d="M349 244L357 321.1L402 284.9Z" fill="#cea299" stroke="#cea299"></path><path d="M441 120.7L415 175.7L444 182.1Z" fill="#835e6b" stroke="#835e6b"></path><path d="M444 182.1L415 175.7L442 223.3Z" fill="#694a5c" stroke="#694a5c"></path><path d="M530 433.3L592 436.6L592 427.7Z" fill="#835e6b" stroke="#835e6b"></path><path d="M592 427.7L655 389.6L587 393.9Z" fill="#1c172b" stroke="#1c172b"></path><path d="M521 115.6L518 138.4L543 108.6Z" fill="#694a5c" stroke="#694a5c"></path><path d="M538 185.4L518 138.4L495 194.4Z" fill="#cea299" stroke="#cea299"></path><path d="M653 327.1L667 252.4L627 265.1Z" fill="#9d737a" stroke="#9d737a"></path><path d="M648 244.1L642 182.1L553 195.4Z" fill="#35273c" stroke="#35273c"></path><path d="M667 252.4L665 244L648 244.1Z" fill="#1c172b" stroke="#1c172b"></path><path d="M497 136.6L472 141.9L495 194.4Z" fill="#e5bba9" stroke="#e5bba9"></path><path d="M415 175.7L362 237L442 223.3Z" fill="#00001b" stroke="#00001b"></path><path d="M518 138.4L497 136.6L495 194.4Z" fill="#1c172b" stroke="#1c172b"></path><path d="M357 321.1L387 404.7L399 396.4Z" fill="#835e6b" stroke="#835e6b"></path><path d="M399 396.4L387 404.7L405 405.6Z" fill="#00001b" stroke="#00001b"></path><path d="M425 465.3L498 469.6L470 404.6Z" fill="#9d737a" stroke="#9d737a"></path><path d="M617 453.6L655 389.6L592 427.7Z" fill="#fad5bb" stroke="#fad5bb"></path><path d="M653 327.1L676 253L667 252.4Z" fill="#694a5c" stroke="#694a5c"></path><path d="M712 281.1L676 253L653 327.1Z" fill="#4f384c" stroke="#4f384c"></path><path d="M667 252.4L676 253L665 244Z" fill="#1c172b" stroke="#1c172b"></path><path d="M425 465.3L470 404.6L405 405.6Z" fill="#1c172b" stroke="#1c172b"></path><path d="M530 433.3L576 477.7L592 436.6Z" fill="#835e6b" stroke="#835e6b"></path><path d="M313 203L349 244L362 237Z" fill="#4f384c" stroke="#4f384c"></path><path d="M362 237L349 244L402 284.9Z" fill="#35273c" stroke="#35273c"></path><path d="M677 229.4L648 244.1L665 244Z" fill="#35273c" stroke="#35273c"></path><path d="M677 229.4L642 182.1L648 244.1Z" fill="#00001b" stroke="#00001b"></path><path d="M497 136.6L464 130.3L472 141.9Z" fill="#b68a89" stroke="#b68a89"></path><path d="M472 141.9L464 130.3L444 182.1Z" fill="#e5bba9" stroke="#e5bba9"></path><path d="M510 86.6L464 130.3L497 136.6Z" fill="#00001b" stroke="#00001b"></path><path d="M676 253L677 229.4L665 244Z" fill="#00001b" stroke="#00001b"></path><path d="M700 436.3L671 391.6L655 389.6Z" fill="#fad5bb" stroke="#fad5bb"></path><path d="M655 389.6L671 391.6L653 327.1Z" fill="#9d737a" stroke="#9d737a"></path><path d="M676 253L706 213.4L677 229.4Z" fill="#9d737a" stroke="#9d737a"></path><path d="M543 108.6L538 185.4L553 195.4Z" fill="#cea299" stroke="#cea299"></path><path d="M518 138.4L521 115.6L497 136.6Z" fill="#cea299" stroke="#cea299"></path><path d="M374 129.7L374 176.4L415 175.7Z" fill="#835e6b" stroke="#835e6b"></path><path d="M415 175.7L374 176.4L362 237Z" fill="#cea299" stroke="#cea299"></path><path d="M349 244L327 317.1L357 321.1Z" fill="#e5bba9" stroke="#e5bba9"></path><path d="M357 321.1L327 317.1L387 404.7Z" fill="#e5bba9" stroke="#e5bba9"></path><path d="M576 477.7L617 453.6L592 436.6Z" fill="#9d737a" stroke="#9d737a"></path><path d="M592 436.6L617 453.6L592 427.7Z" fill="#fad5bb" stroke="#fad5bb"></path><path d="M344 474.1L425 465.3L387 404.7Z" fill="#694a5c" stroke="#694a5c"></path><path d="M387 404.7L425 465.3L405 405.6Z" fill="#b68a89" stroke="#b68a89"></path><path d="M576 494.1L576 477.7L552 515.1Z" fill="#35273c" stroke="#35273c"></path><path d="M498 469.6L576 477.7L530 433.3Z" fill="#835e6b" stroke="#835e6b"></path><path d="M683 394L681 391L671 391.6Z" fill="#835e6b" stroke="#835e6b"></path><path d="M671 391.6L681 391L653 327.1Z" fill="#4f384c" stroke="#4f384c"></path><path d="M510 86.6L441 120.7L464 130.3Z" fill="#e5bba9" stroke="#e5bba9"></path><path d="M464 130.3L441 120.7L444 182.1Z" fill="#4f384c" stroke="#4f384c"></path><path d="M589 92.7L543 108.6L553 195.4Z" fill="#4f384c" stroke="#4f384c"></path><path d="M521 115.6L510 86.6L497 136.6Z" fill="#b68a89" stroke="#b68a89"></path><path d="M700 436.3L683 394L671 391.6Z" fill="#694a5c" stroke="#694a5c"></path><path d="M720 348.7L712 281.1L653 327.1Z" fill="#9d737a" stroke="#9d737a"></path><path d="M677 229.4L675 188.6L642 182.1Z" fill="#e5bba9" stroke="#e5bba9"></path><path d="M642 182.1L589 92.7L553 195.4Z" fill="#b68a89" stroke="#b68a89"></path><path d="M720 348.7L653 327.1L681 391Z" fill="#b68a89" stroke="#b68a89"></path><path d="M677 229.4L706 213.4L675 188.6Z" fill="#1c172b" stroke="#1c172b"></path><path d="M576 477.7L628 465.3L617 453.6Z" fill="#cea299" stroke="#cea299"></path><path d="M617 453.6L628 465.3L655 389.6Z" fill="#835e6b" stroke="#835e6b"></path><path d="M526 513.3L576 477.7L498 469.6Z" fill="#b68a89" stroke="#b68a89"></path><path d="M576 477.7L576 494.1L628 465.3Z" fill="#fad5bb" stroke="#fad5bb"></path><path d="M722 265.9L706 213.4L676 253Z" fill="#e5bba9" stroke="#e5bba9"></path><path d="M732 263L722 265.9L712 281.1Z" fill="#35273c" stroke="#35273c"></path><path d="M712 281.1L722 265.9L676 253Z" fill="#4f384c" stroke="#4f384c"></path><path d="M584 56.9L510 86.6L543 108.6Z" fill="#35273c" stroke="#35273c"></path><path d="M543 108.6L510 86.6L521 115.6Z" fill="#9d737a" stroke="#9d737a"></path><path d="M728 349.6L720 348.7L728 355.9Z" fill="#e5bba9" stroke="#e5bba9"></path><path d="M728 355.9L720 348.7L681 391Z" fill="#00001b" stroke="#00001b"></path><path d="M496 536.4L526 513.3L498 469.6Z" fill="#e5bba9" stroke="#e5bba9"></path><path d="M552 515.1L580 503.1L576 494.1Z" fill="#835e6b" stroke="#835e6b"></path><path d="M576 494.1L580 503.1L628 465.3Z" fill="#1c172b" stroke="#1c172b"></path><path d="M441 120.7L374 129.7L415 175.7Z" fill="#9d737a" stroke="#9d737a"></path><path d="M374 176.4L313 203L362 237Z" fill="#b68a89" stroke="#b68a89"></path><path d="M349 244L266 270L327 317.1Z" fill="#4f384c" stroke="#4f384c"></path><path d="M368 128.4L374 129.7L410 63.9Z" fill="#b68a89" stroke="#b68a89"></path><path d="M526 513.3L552 515.1L576 477.7Z" fill="#35273c" stroke="#35273c"></path><path d="M633 96.7L642 182.1L671 96.6Z" fill="#fad5bb" stroke="#fad5bb"></path><path d="M633 96.7L589 92.7L642 182.1Z" fill="#694a5c" stroke="#694a5c"></path><path d="M357 130.3L313 203L374 176.4Z" fill="#694a5c" stroke="#694a5c"></path><path d="M728 355.9L681 391L683 394Z" fill="#694a5c" stroke="#694a5c"></path><path d="M720 348.7L758 297.9L712 281.1Z" fill="#35273c" stroke="#35273c"></path><path d="M758 297.9L732 263L712 281.1Z" fill="#1c172b" stroke="#1c172b"></path><path d="M722 265.9L732 263L706 213.4Z" fill="#00001b" stroke="#00001b"></path><path d="M741 372.7L728 355.9L683 394Z" fill="#835e6b" stroke="#835e6b"></path><path d="M728 349.6L758 297.9L720 348.7Z" fill="#fad5bb" stroke="#fad5bb"></path><path d="M410 63.9L374 129.7L441 120.7Z" fill="#00001b" stroke="#00001b"></path><path d="M374 129.7L357 130.3L374 176.4Z" fill="#00001b" stroke="#00001b"></path><path d="M370 40.6L357 130.3L368 128.4Z" fill="#fad5bb" stroke="#fad5bb"></path><path d="M368 128.4L357 130.3L374 129.7Z" fill="#9d737a" stroke="#9d737a"></path><path d="M650 513.4L700 436.3L628 465.3Z" fill="#e5bba9" stroke="#e5bba9"></path><path d="M628 465.3L700 436.3L655 389.6Z" fill="#4f384c" stroke="#4f384c"></path><path d="M671 96.6L642 182.1L675 188.6Z" fill="#cea299" stroke="#cea299"></path><path d="M725 176.3L710 168.6L706 213.4Z" fill="#4f384c" stroke="#4f384c"></path><path d="M706 213.4L710 168.6L675 188.6Z" fill="#1c172b" stroke="#1c172b"></path><path d="M700 436.3L721 412.7L683 394Z" fill="#35273c" stroke="#35273c"></path><path d="M425 465.3L496 536.4L498 469.6Z" fill="#e5bba9" stroke="#e5bba9"></path><path d="M526 513.3L563 561.3L552 515.1Z" fill="#e5bba9" stroke="#e5bba9"></path><path d="M593 537.4L601 520.4L580 503.1Z" fill="#835e6b" stroke="#835e6b"></path><path d="M580 503.1L601 520.4L628 465.3Z" fill="#835e6b" stroke="#835e6b"></path><path d="M593 537.4L580 503.1L552 515.1Z" fill="#35273c" stroke="#35273c"></path><path d="M264 271.1L279 352.1L327 317.1Z" fill="#cea299" stroke="#cea299"></path><path d="M327 317.1L279 352.1L387 404.7Z" fill="#35273c" stroke="#35273c"></path><path d="M425 465.3L392 526.4L496 536.4Z" fill="#835e6b" stroke="#835e6b"></path><path d="M721 412.7L741 372.7L683 394Z" fill="#835e6b" stroke="#835e6b"></path><path d="M728 355.9L741 372.7L728 349.6Z" fill="#35273c" stroke="#35273c"></path><path d="M279 352.1L315 437.9L387 404.7Z" fill="#35273c" stroke="#35273c"></path><path d="M315 437.9L344 474.1L387 404.7Z" fill="#9d737a" stroke="#9d737a"></path><path d="M748 200.3L725 176.3L706 213.4Z" fill="#00001b" stroke="#00001b"></path><path d="M710 168.6L671 96.6L675 188.6Z" fill="#1c172b" stroke="#1c172b"></path><path d="M748 200.3L706 213.4L732 263Z" fill="#e5bba9" stroke="#e5bba9"></path><path d="M782 325.7L758 297.9L728 349.6Z" fill="#835e6b" stroke="#835e6b"></path><path d="M584 56.9L501 51.7L510 86.6Z" fill="#cea299" stroke="#cea299"></path><path d="M510 86.6L501 51.7L441 120.7Z" fill="#e5bba9" stroke="#e5bba9"></path><path d="M584 56.9L543 108.6L589 92.7Z" fill="#e5bba9" stroke="#e5bba9"></path><path d="M264 271.1L266 270L260 248.4Z" fill="#00001b" stroke="#00001b"></path><path d="M269 240.4L266 270L349 244Z" fill="#4f384c" stroke="#4f384c"></path><path d="M269 240.4L349 244L313 203Z" fill="#fad5bb" stroke="#fad5bb"></path><path d="M266 270L264 271.1L327 317.1Z" fill="#00001b" stroke="#00001b"></path><path d="M268 212.4L269 240.4L313 203Z" fill="#fad5bb" stroke="#fad5bb"></path><path d="M563 561.3L593 537.4L552 515.1Z" fill="#b68a89" stroke="#b68a89"></path><path d="M601 520.4L650 513.4L628 465.3Z" fill="#b68a89" stroke="#b68a89"></path><path d="M633 96.7L584 56.9L589 92.7Z" fill="#cea299" stroke="#cea299"></path><path d="M612 536.3L650 513.4L601 520.4Z" fill="#fad5bb" stroke="#fad5bb"></path><path d="M747 470.3L783 370.7L721 412.7Z" fill="#694a5c" stroke="#694a5c"></path><path d="M766 249.1L748 200.3L732 263Z" fill="#e5bba9" stroke="#e5bba9"></path><path d="M501 51.7L410 63.9L441 120.7Z" fill="#00001b" stroke="#00001b"></path><path d="M268 212.4L260 248.4L269 240.4Z" fill="#00001b" stroke="#00001b"></path><path d="M593 537.4L612 536.3L601 520.4Z" fill="#cea299" stroke="#cea299"></path><path d="M344 474.1L392 526.4L425 465.3Z" fill="#cea299" stroke="#cea299"></path><path d="M715 121.6L671 96.6L710 168.6Z" fill="#cea299" stroke="#cea299"></path><path d="M633 96.7L661 62.6L584 56.9Z" fill="#835e6b" stroke="#835e6b"></path><path d="M715 121.6L710 168.6L746 158.1Z" fill="#4f384c" stroke="#4f384c"></path><path d="M268 212.4L313 203L284 162.1Z" fill="#35273c" stroke="#35273c"></path><path d="M269 240.4L260 248.4L266 270Z" fill="#4f384c" stroke="#4f384c"></path><path d="M286 432.9L309 457.1L315 437.9Z" fill="#00001b" stroke="#00001b"></path><path d="M315 437.9L309 457.1L344 474.1Z" fill="#9d737a" stroke="#9d737a"></path><path d="M344 474.1L341 527.1L392 526.4Z" fill="#9d737a" stroke="#9d737a"></path><path d="M758 297.9L766 249.1L732 263Z" fill="#cea299" stroke="#cea299"></path><path d="M279 352.1L266 377.7L315 437.9Z" fill="#694a5c" stroke="#694a5c"></path><path d="M217 324.7L266 377.7L279 352.1Z" fill="#b68a89" stroke="#b68a89"></path><path d="M217 324.7L279 352.1L264 271.1Z" fill="#e5bba9" stroke="#e5bba9"></path><path d="M284 162.1L313 203L357 130.3Z" fill="#1c172b" stroke="#1c172b"></path><path d="M266 377.7L286 432.9L315 437.9Z" fill="#4f384c" stroke="#4f384c"></path><path d="M275 137.7L284 162.1L357 130.3Z" fill="#835e6b" stroke="#835e6b"></path><path d="M496 536.4L563 561.3L526 513.3Z" fill="#cea299" stroke="#cea299"></path><path d="M593 537.4L595 600L612 536.3Z" fill="#00001b" stroke="#00001b"></path><path d="M534 600L563 561.3L496 536.4Z" fill="#e5bba9" stroke="#e5bba9"></path><path d="M746 158.1L710 168.6L725 176.3Z" fill="#00001b" stroke="#00001b"></path><path d="M783 370.7L782 325.7L741 372.7Z" fill="#9d737a" stroke="#9d737a"></path><path d="M741 372.7L782 325.7L728 349.6Z" fill="#4f384c" stroke="#4f384c"></path><path d="M790 282L785 246.9L766 249.1Z" fill="#694a5c" stroke="#694a5c"></path><path d="M763 177.7L725 176.3L748 200.3Z" fill="#cea299" stroke="#cea299"></path><path d="M763 177.7L746 158.1L725 176.3Z" fill="#fad5bb" stroke="#fad5bb"></path><path d="M231 427.9L266 416.9L266 377.7Z" fill="#9d737a" stroke="#9d737a"></path><path d="M266 377.7L266 416.9L286 432.9Z" fill="#00001b" stroke="#00001b"></path><path d="M286 432.9L278 439.3L309 457.1Z" fill="#4f384c" stroke="#4f384c"></path><path d="M266 416.9L278 439.3L286 432.9Z" fill="#9d737a" stroke="#9d737a"></path><path d="M285 508.6L341 527.1L344 474.1Z" fill="#00001b" stroke="#00001b"></path><path d="M584 56.9L513 25.9L501 51.7Z" fill="#00001b" stroke="#00001b"></path><path d="M501 51.7L483 13.7L410 63.9Z" fill="#694a5c" stroke="#694a5c"></path><path d="M790 282L766 249.1L758 297.9Z" fill="#835e6b" stroke="#835e6b"></path><path d="M766 249.1L785 246.9L748 200.3Z" fill="#00001b" stroke="#00001b"></path><path d="M782 325.7L790 282L758 297.9Z" fill="#fad5bb" stroke="#fad5bb"></path><path d="M785 246.9L763 177.7L748 200.3Z" fill="#cea299" stroke="#cea299"></path><path d="M746 158.1L742 117.3L715 121.6Z" fill="#4f384c" stroke="#4f384c"></path><path d="M684 43.7L661 62.6L671 96.6Z" fill="#694a5c" stroke="#694a5c"></path><path d="M671 96.6L661 62.6L633 96.7Z" fill="#9d737a" stroke="#9d737a"></path><path d="M578 0L481 -2.1L513 25.9Z" fill="#4f384c" stroke="#4f384c"></path><path d="M721 412.7L783 370.7L741 372.7Z" fill="#cea299" stroke="#cea299"></path><path d="M900 304L831 240L790 282Z" fill="#00001b" stroke="#00001b"></path><path d="M747 470.3L721 412.7L700 436.3Z" fill="#1c172b" stroke="#1c172b"></path><path d="M831 240L765 174.3L763 177.7Z" fill="#835e6b" stroke="#835e6b"></path><path d="M763 177.7L765 174.3L746 158.1Z" fill="#e5bba9" stroke="#e5bba9"></path><path d="M753 79.9L684 43.7L671 96.6Z" fill="#1c172b" stroke="#1c172b"></path><path d="M285 508.6L344 474.1L309 457.1Z" fill="#4f384c" stroke="#4f384c"></path><path d="M440 600L534 600L496 536.4Z" fill="#35273c" stroke="#35273c"></path><path d="M475 5.7L483 13.7L481 -2.1Z" fill="#4f384c" stroke="#4f384c"></path><path d="M513 25.9L483 13.7L501 51.7Z" fill="#b68a89" stroke="#b68a89"></path><path d="M265 87.9L275 137.7L357 130.3Z" fill="#b68a89" stroke="#b68a89"></path><path d="M284 162.1L246 149.6L268 212.4Z" fill="#694a5c" stroke="#694a5c"></path><path d="M215 242.3L264 271.1L260 248.4Z" fill="#b68a89" stroke="#b68a89"></path><path d="M370 40.6L368 128.4L410 63.9Z" fill="#cea299" stroke="#cea299"></path><path d="M715 516.4L700 436.3L650 513.4Z" fill="#1c172b" stroke="#1c172b"></path><path d="M715 516.4L747 470.3L700 436.3Z" fill="#694a5c" stroke="#694a5c"></path><path d="M715 516.4L650 513.4L723 556.3Z" fill="#9d737a" stroke="#9d737a"></path><path d="M768 151.6L742 117.3L746 158.1Z" fill="#00001b" stroke="#00001b"></path><path d="M426 0L372 39.6L410 63.9Z" fill="#4f384c" stroke="#4f384c"></path><path d="M813 127.9L768 151.6L765 174.3Z" fill="#835e6b" stroke="#835e6b"></path><path d="M765 174.3L768 151.6L746 158.1Z" fill="#00001b" stroke="#00001b"></path><path d="M372 39.6L370 40.6L410 63.9Z" fill="#835e6b" stroke="#835e6b"></path><path d="M481 -2.1L483 13.7L513 25.9Z" fill="#694a5c" stroke="#694a5c"></path><path d="M483 13.7L444 0L410 63.9Z" fill="#4f384c" stroke="#4f384c"></path><path d="M215 242.3L260 248.4L219 209.3Z" fill="#b68a89" stroke="#b68a89"></path><path d="M203 298.9L217 324.7L264 271.1Z" fill="#cea299" stroke="#cea299"></path><path d="M630 598.1L650 513.4L612 536.3Z" fill="#835e6b" stroke="#835e6b"></path><path d="M440 600L496 536.4L392 526.4Z" fill="#cea299" stroke="#cea299"></path><path d="M563 561.3L595 600L593 537.4Z" fill="#4f384c" stroke="#4f384c"></path><path d="M219 209.3L260 248.4L268 212.4Z" fill="#fad5bb" stroke="#fad5bb"></path><path d="M578 0L513 25.9L584 56.9Z" fill="#b68a89" stroke="#b68a89"></path><path d="M475 5.7L444 0L483 13.7Z" fill="#00001b" stroke="#00001b"></path><path d="M265 87.9L258 134.3L275 137.7Z" fill="#00001b" stroke="#00001b"></path><path d="M275 137.7L246 149.6L284 162.1Z" fill="#b68a89" stroke="#b68a89"></path><path d="M258 134.3L246 149.6L275 137.7Z" fill="#9d737a" stroke="#9d737a"></path><path d="M587 -9.1L584 56.9L661 62.6Z" fill="#694a5c" stroke="#694a5c"></path><path d="M587 -9.1L578 0L584 56.9Z" fill="#e5bba9" stroke="#e5bba9"></path><path d="M481 -2.1L444 0L475 5.7Z" fill="#e5bba9" stroke="#e5bba9"></path><path d="M335 0L319 31.6L370 40.6Z" fill="#694a5c" stroke="#694a5c"></path><path d="M246 149.6L219 209.3L268 212.4Z" fill="#e5bba9" stroke="#e5bba9"></path><path d="M534 600L574 600L563 561.3Z" fill="#1c172b" stroke="#1c172b"></path><path d="M753 79.9L671 96.6L715 121.6Z" fill="#4f384c" stroke="#4f384c"></path><path d="M278 439.3L285 508.6L309 457.1Z" fill="#835e6b" stroke="#835e6b"></path><path d="M431 600L440 600L392 526.4Z" fill="#9d737a" stroke="#9d737a"></path><path d="M233 497.6L285 508.6L278 439.3Z" fill="#b68a89" stroke="#b68a89"></path><path d="M231 427.9L278 439.3L266 416.9Z" fill="#e5bba9" stroke="#e5bba9"></path><path d="M199 309.7L129 269.1L131 339.6Z" fill="#cea299" stroke="#cea299"></path><path d="M215 242.3L203 298.9L264 271.1Z" fill="#4f384c" stroke="#4f384c"></path><path d="M192 384.7L231 427.9L266 377.7Z" fill="#e5bba9" stroke="#e5bba9"></path><path d="M431 600L392 526.4L361 600Z" fill="#35273c" stroke="#35273c"></path><path d="M192 384.7L266 377.7L217 324.7Z" fill="#e5bba9" stroke="#e5bba9"></path><path d="M395 -12.1L426 0L444 0Z" fill="#cea299" stroke="#cea299"></path><path d="M444 0L426 0L410 63.9Z" fill="#e5bba9" stroke="#e5bba9"></path><path d="M343 584.1L392 526.4L341 527.1Z" fill="#4f384c" stroke="#4f384c"></path><path d="M574 600L595 600L563 561.3Z" fill="#e5bba9" stroke="#e5bba9"></path><path d="M129 269.1L203 298.9L215 242.3Z" fill="#9d737a" stroke="#9d737a"></path><path d="M203 298.9L199 309.7L217 324.7Z" fill="#9d737a" stroke="#9d737a"></path><path d="M679 0L587 -9.1L661 62.6Z" fill="#fad5bb" stroke="#fad5bb"></path><path d="M578 0L587 -9.1L481 -2.1Z" fill="#9d737a" stroke="#9d737a"></path><path d="M481 -2.1L395 -12.1L444 0Z" fill="#fad5bb" stroke="#fad5bb"></path><path d="M595 600L614 600L612 536.3Z" fill="#35273c" stroke="#35273c"></path><path d="M614 600L630 598.1L612 536.3Z" fill="#e5bba9" stroke="#e5bba9"></path><path d="M790 282L831 240L785 246.9Z" fill="#1c172b" stroke="#1c172b"></path><path d="M785 246.9L831 240L763 177.7Z" fill="#cea299" stroke="#cea299"></path><path d="M900 304L790 282L900 313.3Z" fill="#e5bba9" stroke="#e5bba9"></path><path d="M834 383.9L782 325.7L783 370.7Z" fill="#00001b" stroke="#00001b"></path><path d="M319 31.6L357 130.3L370 40.6Z" fill="#1c172b" stroke="#1c172b"></path><path d="M319 31.6L265 87.9L357 130.3Z" fill="#694a5c" stroke="#694a5c"></path><path d="M258 134.3L220 136.3L246 149.6Z" fill="#00001b" stroke="#00001b"></path><path d="M246 149.6L220 136.3L219 209.3Z" fill="#b68a89" stroke="#b68a89"></path><path d="M742 117.3L753 79.9L715 121.6Z" fill="#835e6b" stroke="#835e6b"></path><path d="M684 43.7L679 0L661 62.6Z" fill="#cea299" stroke="#cea299"></path><path d="M787 108.9L753 79.9L742 117.3Z" fill="#cea299" stroke="#cea299"></path><path d="M787 108.9L742 117.3L768 151.6Z" fill="#e5bba9" stroke="#e5bba9"></path><path d="M723 556.3L744 533.4L715 516.4Z" fill="#835e6b" stroke="#835e6b"></path><path d="M715 516.4L744 533.4L747 470.3Z" fill="#e5bba9" stroke="#e5bba9"></path><path d="M834 451.6L834 383.9L783 370.7Z" fill="#00001b" stroke="#00001b"></path><path d="M361 0L370 40.6L372 39.6Z" fill="#9d737a" stroke="#9d737a"></path><path d="M323 599.3L343 584.1L341 527.1Z" fill="#835e6b" stroke="#835e6b"></path><path d="M199 309.7L192 384.7L217 324.7Z" fill="#00001b" stroke="#00001b"></path><path d="M217 475.6L233 497.6L278 439.3Z" fill="#835e6b" stroke="#835e6b"></path><path d="M688 609.1L723 556.3L650 513.4Z" fill="#9d737a" stroke="#9d737a"></path><path d="M805 477.4L783 370.7L747 470.3Z" fill="#4f384c" stroke="#4f384c"></path><path d="M587 -9.1L395 -12.1L481 -2.1Z" fill="#835e6b" stroke="#835e6b"></path><path d="M426 0L395 -12.1L372 39.6Z" fill="#835e6b" stroke="#835e6b"></path><path d="M833 525.4L775 504.6L744 533.4Z" fill="#1c172b" stroke="#1c172b"></path><path d="M744 533.4L775 504.6L747 470.3Z" fill="#e5bba9" stroke="#e5bba9"></path><path d="M813 127.9L787 108.9L768 151.6Z" fill="#e5bba9" stroke="#e5bba9"></path><path d="M265 87.9L220 136.3L258 134.3Z" fill="#cea299" stroke="#cea299"></path><path d="M219 209.3L176 192.4L215 242.3Z" fill="#9d737a" stroke="#9d737a"></path><path d="M395 -12.1L361 0L372 39.6Z" fill="#9d737a" stroke="#9d737a"></path><path d="M183 395L188 389.4L140 390.6Z" fill="#b68a89" stroke="#b68a89"></path><path d="M140 390.6L188 389.4L192 384.7Z" fill="#b68a89" stroke="#b68a89"></path><path d="M192 384.7L188 389.4L231 427.9Z" fill="#694a5c" stroke="#694a5c"></path><path d="M292 600L323 599.3L341 527.1Z" fill="#00001b" stroke="#00001b"></path><path d="M343 584.1L361 600L392 526.4Z" fill="#1c172b" stroke="#1c172b"></path><path d="M693 0L684 43.7L718 0Z" fill="#00001b" stroke="#00001b"></path><path d="M693 0L679 0L684 43.7Z" fill="#fad5bb" stroke="#fad5bb"></path><path d="M837 457.1L805 477.4L833 525.4Z" fill="#cea299" stroke="#cea299"></path><path d="M775 504.6L805 477.4L747 470.3Z" fill="#cea299" stroke="#cea299"></path><path d="M217 475.6L278 439.3L231 427.9Z" fill="#e5bba9" stroke="#e5bba9"></path><path d="M343 584.1L323 599.3L361 600Z" fill="#b68a89" stroke="#b68a89"></path><path d="M188 389.4L187 430.3L231 427.9Z" fill="#35273c" stroke="#35273c"></path><path d="M140 390.6L192 384.7L131 339.6Z" fill="#1c172b" stroke="#1c172b"></path><path d="M187 430.3L217 475.6L231 427.9Z" fill="#fad5bb" stroke="#fad5bb"></path><path d="M614 600L622 626.1L630 598.1Z" fill="#fad5bb" stroke="#fad5bb"></path><path d="M630 598.1L688 609.1L650 513.4Z" fill="#1c172b" stroke="#1c172b"></path><path d="M595 600L622 626.1L614 600Z" fill="#e5bba9" stroke="#e5bba9"></path><path d="M574 600L622 626.1L595 600Z" fill="#35273c" stroke="#35273c"></path><path d="M534 600L622 626.1L574 600Z" fill="#b68a89" stroke="#b68a89"></path><path d="M362 635.1L622 626.1L534 600Z" fill="#4f384c" stroke="#4f384c"></path><path d="M362 635.1L534 600L440 600Z" fill="#35273c" stroke="#35273c"></path><path d="M362 635.1L440 600L431 600Z" fill="#fad5bb" stroke="#fad5bb"></path><path d="M845 155.3L813 127.9L765 174.3Z" fill="#9d737a" stroke="#9d737a"></path><path d="M718 0L684 43.7L728 0Z" fill="#e5bba9" stroke="#e5bba9"></path><path d="M292 -31.1L335 0L361 0Z" fill="#cea299" stroke="#cea299"></path><path d="M361 0L335 0L370 40.6Z" fill="#35273c" stroke="#35273c"></path><path d="M319 31.6L244 9.7L265 87.9Z" fill="#9d737a" stroke="#9d737a"></path><path d="M265 87.9L200 108.9L220 136.3Z" fill="#694a5c" stroke="#694a5c"></path><path d="M684 43.7L753 79.9L728 0Z" fill="#9d737a" stroke="#9d737a"></path><path d="M679 0L676 -13.3L587 -9.1Z" fill="#35273c" stroke="#35273c"></path><path d="M183 395L187 430.3L188 389.4Z" fill="#694a5c" stroke="#694a5c"></path><path d="M693 0L676 -13.3L679 0Z" fill="#9d737a" stroke="#9d737a"></path><path d="M272 -42.1L292 -31.1L395 -12.1Z" fill="#35273c" stroke="#35273c"></path><path d="M220 136.3L176 192.4L219 209.3Z" fill="#1c172b" stroke="#1c172b"></path><path d="M292 600L341 527.1L285 508.6Z" fill="#e5bba9" stroke="#e5bba9"></path><path d="M361 600L362 635.1L431 600Z" fill="#e5bba9" stroke="#e5bba9"></path><path d="M837 457.1L834 451.6L805 477.4Z" fill="#4f384c" stroke="#4f384c"></path><path d="M805 477.4L834 451.6L783 370.7Z" fill="#35273c" stroke="#35273c"></path><path d="M622 626.1L688 609.1L630 598.1Z" fill="#1c172b" stroke="#1c172b"></path><path d="M723 556.3L740 600L744 533.4Z" fill="#694a5c" stroke="#694a5c"></path><path d="M292 -31.1L317 0L335 0Z" fill="#00001b" stroke="#00001b"></path><path d="M335 0L317 0L319 31.6Z" fill="#35273c" stroke="#35273c"></path><path d="M220 136.3L179 115.6L176 192.4Z" fill="#9d737a" stroke="#9d737a"></path><path d="M217 475.6L207 503.3L233 497.6Z" fill="#9d737a" stroke="#9d737a"></path><path d="M233 497.6L231 522.4L285 508.6Z" fill="#00001b" stroke="#00001b"></path><path d="M187 430.3L202 476.7L217 475.6Z" fill="#1c172b" stroke="#1c172b"></path><path d="M226 527.3L231 522.4L207 503.3Z" fill="#b68a89" stroke="#b68a89"></path><path d="M688 609.1L709 600L723 556.3Z" fill="#835e6b" stroke="#835e6b"></path><path d="M833 525.4L805 477.4L775 504.6Z" fill="#835e6b" stroke="#835e6b"></path><path d="M834 451.6L878 392.4L834 383.9Z" fill="#b68a89" stroke="#b68a89"></path><path d="M870 186.1L845 155.3L831 240Z" fill="#cea299" stroke="#cea299"></path><path d="M831 240L845 155.3L765 174.3Z" fill="#e5bba9" stroke="#e5bba9"></path><path d="M792 53.9L753 79.9L787 108.9Z" fill="#00001b" stroke="#00001b"></path><path d="M870 186.1L831 240L900 229.1Z" fill="#e5bba9" stroke="#e5bba9"></path><path d="M818 93.4L787 108.9L813 127.9Z" fill="#35273c" stroke="#35273c"></path><path d="M693 0L718 0L676 -13.3Z" fill="#1c172b" stroke="#1c172b"></path><path d="M688 609.1L719 600L709 600Z" fill="#cea299" stroke="#cea299"></path><path d="M709 600L719 600L723 556.3Z" fill="#35273c" stroke="#35273c"></path><path d="M292 -31.1L302 0L317 0Z" fill="#9d737a" stroke="#9d737a"></path><path d="M317 0L302 0L319 31.6Z" fill="#4f384c" stroke="#4f384c"></path><path d="M197 61.9L200 108.9L265 87.9Z" fill="#35273c" stroke="#35273c"></path><path d="M207 503.3L231 522.4L233 497.6Z" fill="#cea299" stroke="#cea299"></path><path d="M263 600L292 600L285 508.6Z" fill="#b68a89" stroke="#b68a89"></path><path d="M177 513.4L207 503.3L202 476.7Z" fill="#cea299" stroke="#cea299"></path><path d="M202 476.7L207 503.3L217 475.6Z" fill="#fad5bb" stroke="#fad5bb"></path><path d="M292 600L362 635.1L323 599.3Z" fill="#4f384c" stroke="#4f384c"></path><path d="M323 599.3L362 635.1L361 600Z" fill="#cea299" stroke="#cea299"></path><path d="M870 111.4L818 93.4L813 127.9Z" fill="#35273c" stroke="#35273c"></path><path d="M764 0L728 0L753 79.9Z" fill="#9d737a" stroke="#9d737a"></path><path d="M718 0L728 0L676 -13.3Z" fill="#694a5c" stroke="#694a5c"></path><path d="M179 115.6L193 111.6L197 61.9Z" fill="#e5bba9" stroke="#e5bba9"></path><path d="M200 108.9L193 111.6L220 136.3Z" fill="#35273c" stroke="#35273c"></path><path d="M818 93.4L792 53.9L787 108.9Z" fill="#4f384c" stroke="#4f384c"></path><path d="M263 600L285 508.6L231 522.4Z" fill="#fad5bb" stroke="#fad5bb"></path><path d="M845 155.3L870 111.4L813 127.9Z" fill="#1c172b" stroke="#1c172b"></path><path d="M892 346.6L782 325.7L834 383.9Z" fill="#1c172b" stroke="#1c172b"></path><path d="M793 642.1L719 600L688 609.1Z" fill="#694a5c" stroke="#694a5c"></path><path d="M793 642.1L740 600L719 600Z" fill="#00001b" stroke="#00001b"></path><path d="M719 600L740 600L723 556.3Z" fill="#00001b" stroke="#00001b"></path><path d="M900 457.6L878 392.4L834 451.6Z" fill="#e5bba9" stroke="#e5bba9"></path><path d="M197 61.9L193 111.6L200 108.9Z" fill="#b68a89" stroke="#b68a89"></path><path d="M193 111.6L179 115.6L220 136.3Z" fill="#e5bba9" stroke="#e5bba9"></path><path d="M878 392.4L892 346.6L834 383.9Z" fill="#35273c" stroke="#35273c"></path><path d="M199 309.7L203 298.9L129 269.1Z" fill="#1c172b" stroke="#1c172b"></path><path d="M131 339.6L192 384.7L199 309.7Z" fill="#9d737a" stroke="#9d737a"></path><path d="M183 395L149 426.9L187 430.3Z" fill="#9d737a" stroke="#9d737a"></path><path d="M187 430.3L149 426.9L202 476.7Z" fill="#fad5bb" stroke="#fad5bb"></path><path d="M129 269.1L215 242.3L176 192.4Z" fill="#b68a89" stroke="#b68a89"></path><path d="M144 172.3L129 269.1L176 192.4Z" fill="#b68a89" stroke="#b68a89"></path><path d="M140 390.6L149 426.9L183 395Z" fill="#4f384c" stroke="#4f384c"></path><path d="M900 313.3L790 282L782 325.7Z" fill="#e5bba9" stroke="#e5bba9"></path><path d="M892 346.6L900 313.3L782 325.7Z" fill="#35273c" stroke="#35273c"></path><path d="M900 229.1L882 181.4L870 186.1Z" fill="#35273c" stroke="#35273c"></path><path d="M870 186.1L882 181.4L845 155.3Z" fill="#1c172b" stroke="#1c172b"></path><path d="M799 0L764 0L792 53.9Z" fill="#fad5bb" stroke="#fad5bb"></path><path d="M900 457.6L900 326.9L892 346.6Z" fill="#b68a89" stroke="#b68a89"></path><path d="M892 346.6L900 326.9L900 313.3Z" fill="#00001b" stroke="#00001b"></path><path d="M179 115.6L144 172.3L176 192.4Z" fill="#b68a89" stroke="#b68a89"></path><path d="M226 527.3L263 600L231 522.4Z" fill="#694a5c" stroke="#694a5c"></path><path d="M292 600L263 600L362 635.1Z" fill="#694a5c" stroke="#694a5c"></path><path d="M205 600L263 600L226 527.3Z" fill="#1c172b" stroke="#1c172b"></path><path d="M177 513.4L226 527.3L207 503.3Z" fill="#835e6b" stroke="#835e6b"></path><path d="M799 0L792 53.9L881 0Z" fill="#835e6b" stroke="#835e6b"></path><path d="M792 53.9L764 0L753 79.9Z" fill="#e5bba9" stroke="#e5bba9"></path><path d="M728 0L764 0L676 -13.3Z" fill="#cea299" stroke="#cea299"></path><path d="M847 564.3L833 525.4L744 533.4Z" fill="#e5bba9" stroke="#e5bba9"></path><path d="M837 457.1L900 457.6L834 451.6Z" fill="#cea299" stroke="#cea299"></path><path d="M900 304L900 229.1L831 240Z" fill="#835e6b" stroke="#835e6b"></path><path d="M244 9.7L197 61.9L265 87.9Z" fill="#35273c" stroke="#35273c"></path><path d="M179 115.6L163 115.3L144 172.3Z" fill="#1c172b" stroke="#1c172b"></path><path d="M302 0L244 9.7L319 31.6Z" fill="#e5bba9" stroke="#e5bba9"></path><path d="M160 53.9L163 115.3L179 115.6Z" fill="#fad5bb" stroke="#fad5bb"></path><path d="M395 -12.1L292 -31.1L361 0Z" fill="#e5bba9" stroke="#e5bba9"></path><path d="M302 0L292 -31.1L244 9.7Z" fill="#9d737a" stroke="#9d737a"></path><path d="M272 -42.1L395 -12.1L587 -9.1Z" fill="#1c172b" stroke="#1c172b"></path><path d="M149 426.9L177 513.4L202 476.7Z" fill="#e5bba9" stroke="#e5bba9"></path><path d="M131 339.6L109 338.6L140 390.6Z" fill="#fad5bb" stroke="#fad5bb"></path><path d="M140 390.6L116 434.9L149 426.9Z" fill="#00001b" stroke="#00001b"></path><path d="M149 426.9L116 434.9L177 513.4Z" fill="#fad5bb" stroke="#fad5bb"></path><path d="M129 269.1L109 312.9L131 339.6Z" fill="#35273c" stroke="#35273c"></path><path d="M52 359L109 312.9L23 334.7Z" fill="#835e6b" stroke="#835e6b"></path><path d="M900 99.4L870 111.4L882 181.4Z" fill="#694a5c" stroke="#694a5c"></path><path d="M882 181.4L870 111.4L845 155.3Z" fill="#835e6b" stroke="#835e6b"></path><path d="M109 312.9L109 338.6L131 339.6Z" fill="#9d737a" stroke="#9d737a"></path><path d="M201 0L197 31.6L244 9.7Z" fill="#b68a89" stroke="#b68a89"></path><path d="M244 9.7L197 31.6L197 61.9Z" fill="#00001b" stroke="#00001b"></path><path d="M197 61.9L160 53.9L179 115.6Z" fill="#4f384c" stroke="#4f384c"></path><path d="M764 0L799 0L676 -13.3Z" fill="#00001b" stroke="#00001b"></path><path d="M893 25.9L792 53.9L818 93.4Z" fill="#b68a89" stroke="#b68a89"></path><path d="M847 564.3L854 537.1L833 525.4Z" fill="#fad5bb" stroke="#fad5bb"></path><path d="M900 503.4L900 469.7L837 457.1Z" fill="#9d737a" stroke="#9d737a"></path><path d="M878 392.4L900 457.6L892 346.6Z" fill="#4f384c" stroke="#4f384c"></path><path d="M177 513.4L191 565.4L226 527.3Z" fill="#e5bba9" stroke="#e5bba9"></path><path d="M156 531.3L191 565.4L177 513.4Z" fill="#b68a89" stroke="#b68a89"></path><path d="M676 -13.3L272 -42.1L587 -9.1Z" fill="#e5bba9" stroke="#e5bba9"></path><path d="M292 -31.1L272 -42.1L244 9.7Z" fill="#9d737a" stroke="#9d737a"></path><path d="M900 469.7L900 457.6L837 457.1Z" fill="#cea299" stroke="#cea299"></path><path d="M87 419.6L116 434.9L140 390.6Z" fill="#00001b" stroke="#00001b"></path><path d="M900 503.4L837 457.1L833 525.4Z" fill="#e5bba9" stroke="#e5bba9"></path><path d="M116 434.9L156 531.3L177 513.4Z" fill="#1c172b" stroke="#1c172b"></path><path d="M740 600L847 564.3L744 533.4Z" fill="#fad5bb" stroke="#fad5bb"></path><path d="M854 537.1L900 503.4L833 525.4Z" fill="#e5bba9" stroke="#e5bba9"></path><path d="M163 115.3L133 96.6L144 172.3Z" fill="#b68a89" stroke="#b68a89"></path><path d="M44 250L109 312.9L129 269.1Z" fill="#694a5c" stroke="#694a5c"></path><path d="M197 31.6L160 53.9L197 61.9Z" fill="#835e6b" stroke="#835e6b"></path><path d="M169 0L160 53.9L197 31.6Z" fill="#9d737a" stroke="#9d737a"></path><path d="M139 74.4L133 96.6L163 115.3Z" fill="#e5bba9" stroke="#e5bba9"></path><path d="M184 600L205 600L191 565.4Z" fill="#35273c" stroke="#35273c"></path><path d="M191 565.4L205 600L226 527.3Z" fill="#35273c" stroke="#35273c"></path><path d="M263 600L102 654.1L362 635.1Z" fill="#35273c" stroke="#35273c"></path><path d="M272 -42.1L201 0L244 9.7Z" fill="#4f384c" stroke="#4f384c"></path><path d="M96 17.7L139 74.4L160 53.9Z" fill="#835e6b" stroke="#835e6b"></path><path d="M160 53.9L139 74.4L163 115.3Z" fill="#35273c" stroke="#35273c"></path><path d="M900 229.1L900 99.4L882 181.4Z" fill="#4f384c" stroke="#4f384c"></path><path d="M870 111.4L900 70.7L818 93.4Z" fill="#35273c" stroke="#35273c"></path><path d="M900 538.1L900 503.4L854 537.1Z" fill="#00001b" stroke="#00001b"></path><path d="M116 434.9L142 539.4L156 531.3Z" fill="#4f384c" stroke="#4f384c"></path><path d="M156 531.3L140 544.3L191 565.4Z" fill="#cea299" stroke="#cea299"></path><path d="M272 -42.1L187 0L201 0Z" fill="#1c172b" stroke="#1c172b"></path><path d="M201 0L187 0L197 31.6Z" fill="#e5bba9" stroke="#e5bba9"></path><path d="M52 359L87 419.6L109 338.6Z" fill="#1c172b" stroke="#1c172b"></path><path d="M109 338.6L87 419.6L140 390.6Z" fill="#cea299" stroke="#cea299"></path><path d="M116 434.9L90 432.9L142 539.4Z" fill="#b68a89" stroke="#b68a89"></path><path d="M52 359L109 338.6L109 312.9Z" fill="#835e6b" stroke="#835e6b"></path><path d="M87 419.6L90 432.9L116 434.9Z" fill="#694a5c" stroke="#694a5c"></path><path d="M622 626.1L793 642.1L688 609.1Z" fill="#35273c" stroke="#35273c"></path><path d="M740 600L842 599.3L847 564.3Z" fill="#1c172b" stroke="#1c172b"></path><path d="M847 564.3L900 538.1L854 537.1Z" fill="#9d737a" stroke="#9d737a"></path><path d="M362 635.1L793 642.1L622 626.1Z" fill="#00001b" stroke="#00001b"></path><path d="M164 590.1L184 600L191 565.4Z" fill="#4f384c" stroke="#4f384c"></path><path d="M205 600L102 654.1L263 600Z" fill="#4f384c" stroke="#4f384c"></path><path d="M793 642.1L842 599.3L740 600Z" fill="#fad5bb" stroke="#fad5bb"></path><path d="M38 541.3L140 544.3L142 539.4Z" fill="#00001b" stroke="#00001b"></path><path d="M142 539.4L140 544.3L156 531.3Z" fill="#e5bba9" stroke="#e5bba9"></path><path d="M272 -42.1L181 0L187 0Z" fill="#835e6b" stroke="#835e6b"></path><path d="M187 0L181 0L197 31.6Z" fill="#4f384c" stroke="#4f384c"></path><path d="M900 99.4L900 73.6L870 111.4Z" fill="#fad5bb" stroke="#fad5bb"></path><path d="M900 73.6L900 70.7L870 111.4Z" fill="#35273c" stroke="#35273c"></path><path d="M140 544.3L164 590.1L191 565.4Z" fill="#00001b" stroke="#00001b"></path><path d="M135 615.1L165 593.1L164 590.1Z" fill="#694a5c" stroke="#694a5c"></path><path d="M164 590.1L165 593.1L184 600Z" fill="#835e6b" stroke="#835e6b"></path><path d="M888 600L900 538.1L847 564.3Z" fill="#cea299" stroke="#cea299"></path><path d="M272 -42.1L169 0L181 0Z" fill="#cea299" stroke="#cea299"></path><path d="M181 0L169 0L197 31.6Z" fill="#00001b" stroke="#00001b"></path><path d="M900 99.4L909 68.7L900 73.6Z" fill="#fad5bb" stroke="#fad5bb"></path><path d="M900 73.6L909 68.7L900 70.7Z" fill="#835e6b" stroke="#835e6b"></path><path d="M900 70.7L900 51.9L818 93.4Z" fill="#694a5c" stroke="#694a5c"></path><path d="M954 18.7L909 68.7L900 99.4Z" fill="#e5bba9" stroke="#e5bba9"></path><path d="M954 18.7L900 99.4L900 229.1Z" fill="#cea299" stroke="#cea299"></path><path d="M954 18.7L900 229.1L900 304Z" fill="#835e6b" stroke="#835e6b"></path><path d="M954 18.7L900 304L900 313.3Z" fill="#9d737a" stroke="#9d737a"></path><path d="M954 18.7L900 313.3L900 326.9Z" fill="#cea299" stroke="#cea299"></path><path d="M954 18.7L900 326.9L900 457.6Z" fill="#b68a89" stroke="#b68a89"></path><path d="M954 18.7L900 457.6L900 469.7Z" fill="#fad5bb" stroke="#fad5bb"></path><path d="M954 18.7L900 469.7L900 503.4Z" fill="#00001b" stroke="#00001b"></path><path d="M909 68.7L900 51.9L900 70.7Z" fill="#35273c" stroke="#35273c"></path><path d="M44 250L129 269.1L144 172.3Z" fill="#fad5bb" stroke="#fad5bb"></path><path d="M87 419.6L26 451.7L90 432.9Z" fill="#694a5c" stroke="#694a5c"></path><path d="M74 600L135 615.1L140 544.3Z" fill="#b68a89" stroke="#b68a89"></path><path d="M44 250L144 172.3L27 173.4Z" fill="#e5bba9" stroke="#e5bba9"></path><path d="M793 642.1L870 600L842 599.3Z" fill="#fad5bb" stroke="#fad5bb"></path><path d="M842 599.3L870 600L847 564.3Z" fill="#9d737a" stroke="#9d737a"></path><path d="M900 0L893 25.9L954 18.7Z" fill="#00001b" stroke="#00001b"></path><path d="M900 51.9L893 25.9L818 93.4Z" fill="#e5bba9" stroke="#e5bba9"></path><path d="M52 135.7L133 96.6L69 88.7Z" fill="#35273c" stroke="#35273c"></path><path d="M52 135.7L144 172.3L133 96.6Z" fill="#9d737a" stroke="#9d737a"></path><path d="M799 0L881 0L676 -13.3Z" fill="#694a5c" stroke="#694a5c"></path><path d="M676 -13.3L900 0L272 -42.1Z" fill="#fad5bb" stroke="#fad5bb"></path><path d="M893 25.9L881 0L792 53.9Z" fill="#9d737a" stroke="#9d737a"></path><path d="M793 642.1L888 600L870 600Z" fill="#00001b" stroke="#00001b"></path><path d="M870 600L888 600L847 564.3Z" fill="#694a5c" stroke="#694a5c"></path><path d="M888 600L900 596.3L900 538.1Z" fill="#4f384c" stroke="#4f384c"></path><path d="M900 538.1L954 18.7L900 503.4Z" fill="#00001b" stroke="#00001b"></path><path d="M900 600L900 596.3L888 600Z" fill="#835e6b" stroke="#835e6b"></path><path d="M69 88.7L133 96.6L139 74.4Z" fill="#694a5c" stroke="#694a5c"></path><path d="M954 18.7L893 25.9L900 51.9Z" fill="#b68a89" stroke="#b68a89"></path><path d="M893 25.9L900 0L881 0Z" fill="#b68a89" stroke="#b68a89"></path><path d="M881 0L900 0L676 -13.3Z" fill="#b68a89" stroke="#b68a89"></path><path d="M793 642.1L900 600L888 600Z" fill="#cea299" stroke="#cea299"></path><path d="M900 596.3L954 18.7L900 538.1Z" fill="#694a5c" stroke="#694a5c"></path><path d="M9 293.1L23 334.7L109 312.9Z" fill="#cea299" stroke="#cea299"></path><path d="M0 424.3L26 451.7L87 419.6Z" fill="#9d737a" stroke="#9d737a"></path><path d="M140 544.3L135 615.1L164 590.1Z" fill="#e5bba9" stroke="#e5bba9"></path><path d="M9 293.1L109 312.9L44 250Z" fill="#835e6b" stroke="#835e6b"></path><path d="M96 17.7L69 88.7L139 74.4Z" fill="#4f384c" stroke="#4f384c"></path><path d="M38 541.3L142 539.4L90 432.9Z" fill="#cea299" stroke="#cea299"></path><path d="M165 593.1L135 615.1L184 600Z" fill="#35273c" stroke="#35273c"></path><path d="M184 600L102 654.1L205 600Z" fill="#9d737a" stroke="#9d737a"></path><path d="M0 193.3L27 173.4L-3 137.4Z" fill="#e5bba9" stroke="#e5bba9"></path><path d="M52 135.7L27 173.4L144 172.3Z" fill="#835e6b" stroke="#835e6b"></path><path d="M103 4.7L96 17.7L160 53.9Z" fill="#4f384c" stroke="#4f384c"></path><path d="M0 193.3L0 215.1L27 173.4Z" fill="#cea299" stroke="#cea299"></path><path d="M103 4.7L160 53.9L169 0Z" fill="#835e6b" stroke="#835e6b"></path><path d="M4 251.1L9 293.1L44 250Z" fill="#1c172b" stroke="#1c172b"></path><path d="M61 -9.1L103 4.7L169 0Z" fill="#4f384c" stroke="#4f384c"></path><path d="M0 360.6L52 359L23 334.7Z" fill="#fad5bb" stroke="#fad5bb"></path><path d="M0 424.3L87 419.6L52 359Z" fill="#cea299" stroke="#cea299"></path><path d="M0 215.1L4 251.1L44 250Z" fill="#fad5bb" stroke="#fad5bb"></path><path d="M9 293.1L0 291.9L23 334.7Z" fill="#694a5c" stroke="#694a5c"></path><path d="M4 251.1L0 291.9L9 293.1Z" fill="#1c172b" stroke="#1c172b"></path><path d="M0 291.9L0 360L23 334.7Z" fill="#694a5c" stroke="#694a5c"></path><path d="M0 360L0 360.6L23 334.7Z" fill="#cea299" stroke="#cea299"></path><path d="M4 251.1L-22 280.3L0 291.9Z" fill="#cea299" stroke="#cea299"></path><path d="M27 173.4L0 215.1L44 250Z" fill="#835e6b" stroke="#835e6b"></path><path d="M27 173.4L52 135.7L-3 137.4Z" fill="#1c172b" stroke="#1c172b"></path><path d="M900 600L954 18.7L900 596.3Z" fill="#e5bba9" stroke="#e5bba9"></path><path d="M909 68.7L954 18.7L900 51.9Z" fill="#4f384c" stroke="#4f384c"></path><path d="M-3 137.4L0 112.4L-5 131.6Z" fill="#cea299" stroke="#cea299"></path><path d="M52 135.7L0 112.4L-3 137.4Z" fill="#cea299" stroke="#cea299"></path><path d="M0 360.6L0 424.3L52 359Z" fill="#00001b" stroke="#00001b"></path><path d="M73 600L74 600L38 541.3Z" fill="#835e6b" stroke="#835e6b"></path><path d="M74 600L140 544.3L38 541.3Z" fill="#9d737a" stroke="#9d737a"></path><path d="M38 541.3L90 432.9L26 451.7Z" fill="#b68a89" stroke="#b68a89"></path><path d="M74 600L102 654.1L135 615.1Z" fill="#fad5bb" stroke="#fad5bb"></path><path d="M0 499.1L38 541.3L26 451.7Z" fill="#694a5c" stroke="#694a5c"></path><path d="M0 193.3L-22 280.3L0 215.1Z" fill="#fad5bb" stroke="#fad5bb"></path><path d="M0 215.1L-22 280.3L4 251.1Z" fill="#694a5c" stroke="#694a5c"></path><path d="M0 291.9L-22 280.3L0 360Z" fill="#cea299" stroke="#cea299"></path><path d="M0 360L-22 280.3L0 360.6Z" fill="#1c172b" stroke="#1c172b"></path><path d="M0 360.6L-22 280.3L0 424.3Z" fill="#b68a89" stroke="#b68a89"></path><path d="M0 424.3L0 452.7L26 451.7Z" fill="#e5bba9" stroke="#e5bba9"></path><path d="M-7 476.4L0 452.7L0 424.3Z" fill="#9d737a" stroke="#9d737a"></path><path d="M52 135.7L0 100.6L0 112.4Z" fill="#835e6b" stroke="#835e6b"></path><path d="M0 193.3L-5 131.6L-22 280.3Z" fill="#1c172b" stroke="#1c172b"></path><path d="M73 600L102 654.1L74 600Z" fill="#1c172b" stroke="#1c172b"></path><path d="M135 615.1L102 654.1L184 600Z" fill="#9d737a" stroke="#9d737a"></path><path d="M362 635.1L102 654.1L793 642.1Z" fill="#1c172b" stroke="#1c172b"></path><path d="M43 600L102 654.1L73 600Z" fill="#b68a89" stroke="#b68a89"></path><path d="M52 135.7L69 88.7L0 100.6Z" fill="#b68a89" stroke="#b68a89"></path><path d="M-3 137.4L-5 131.6L0 193.3Z" fill="#b68a89" stroke="#b68a89"></path><path d="M61 -9.1L69 88.7L96 17.7Z" fill="#694a5c" stroke="#694a5c"></path><path d="M272 -42.1L61 -9.1L169 0Z" fill="#694a5c" stroke="#694a5c"></path><path d="M103 4.7L61 -9.1L96 17.7Z" fill="#35273c" stroke="#35273c"></path><path d="M0 452.7L-7 476.4L26 451.7Z" fill="#9d737a" stroke="#9d737a"></path><path d="M38 541.3L43 600L73 600Z" fill="#1c172b" stroke="#1c172b"></path><path d="M-22 280.3L-7 476.4L0 424.3Z" fill="#4f384c" stroke="#4f384c"></path><path d="M0 92.9L0 100.6L69 88.7Z" fill="#694a5c" stroke="#694a5c"></path><path d="M0 112.4L0 100.6L-5 131.6Z" fill="#b68a89" stroke="#b68a89"></path><path d="M-7 476.4L0 499.1L26 451.7Z" fill="#4f384c" stroke="#4f384c"></path><path d="M0 73.7L0 92.9L69 88.7Z" fill="#835e6b" stroke="#835e6b"></path><path d="M0 100.6L0 92.9L-5 131.6Z" fill="#9d737a" stroke="#9d737a"></path><path d="M0 499.1L23 561.1L38 541.3Z" fill="#835e6b" stroke="#835e6b"></path><path d="M23 561.1L43 600L38 541.3Z" fill="#cea299" stroke="#cea299"></path><path d="M61 -9.1L0 73.7L69 88.7Z" fill="#e5bba9" stroke="#e5bba9"></path><path d="M0 92.9L-42 0L-5 131.6Z" fill="#e5bba9" stroke="#e5bba9"></path><path d="M-5 131.6L-42 0L-22 280.3Z" fill="#b68a89" stroke="#b68a89"></path><path d="M0 499.1L0 568.4L23 561.1Z" fill="#9d737a" stroke="#9d737a"></path><path d="M23 561.1L0 600L43 600Z" fill="#694a5c" stroke="#694a5c"></path><path d="M43 600L0 600L102 654.1Z" fill="#e5bba9" stroke="#e5bba9"></path><path d="M-7 476.4L0 568.4L0 499.1Z" fill="#9d737a" stroke="#9d737a"></path><path d="M0 600L0 568.4L-7 476.4Z" fill="#e5bba9" stroke="#e5bba9"></path><path d="M-42 0L0 0L61 -9.1Z" fill="#cea299" stroke="#cea299"></path><path d="M61 -9.1L0 0L0 73.7Z" fill="#835e6b" stroke="#835e6b"></path><path d="M0 73.7L-42 0L0 92.9Z" fill="#1c172b" stroke="#1c172b"></path><path d="M-22 280.3L0 600L-7 476.4Z" fill="#4f384c" stroke="#4f384c"></path><path d="M0 568.4L0 600L23 561.1Z" fill="#b68a89" stroke="#b68a89"></path><path d="M272 -42.1L-42 0L61 -9.1Z" fill="#835e6b" stroke="#835e6b"></path><path d="M0 0L-42 0L0 73.7Z" fill="#835e6b" stroke="#835e6b"></path><path d="M-22 280.3L-42 0L0 600Z" fill="#fad5bb" stroke="#fad5bb"></path></g></svg>